<svg xmlns="http://www.w3.org/2000/svg" viewBox="0 0 32 32" role="img" aria-label="USDC">
  <circle cx="16" cy="16" r="16" fill="#2775CA"/>
  <path fill="#FFF" d="M20.8 17.6c.1-.5.1-1 .1-1.6s0-1.1-.1-1.6h2.2c.1.5.1 1 .1 1.6s0 1.1-.1 1.6h-2.2zm-3.8 0c.1-.5.1-1 .1-1.6s0-1.1-.1-1.6h-2.2c-.1.5-.1 1-.1 1.6s0 1.1.1 1.6h2.2zm-3.8 0c.1-.5.1-1 .1-1.6s0-1.1-.1-1.6H10.9c-.1.5-.1 1-.1 1.6s0 1.1.1 1.6h2.3zM23 14.4c-.7-2.8-3-4.9-5.8-5.5V8h-2.4v.9c-2.8.6-5.1 2.7-5.8 5.5h2.2c.5-1.6 1.9-2.7 3.6-3v6.5H10.9c-.1.5-.1 1-.1 1.6s0 1.1.1 1.6h2.3v6.5c-1.7-.3-3.1-1.4-3.6-3H9c.7 2.8 3 4.9 5.8 5.5V24h2.4v-.9c2.8-.6 5.1-2.7 5.8-5.5h-2.2c-.5 1.6-1.9 2.7-3.6 3v-6.5h2.2c.1-.5.1-1 .1-1.6s0-1.1-.1-1.6h-2.2v-6.5c1.7.3 3.1 1.4 3.6 3H23z"/>
</svg>
