<svg xmlns="http://www.w3.org/2000/svg" viewBox="0 0 32 32" role="img" aria-label="Uniswap">
  <circle cx="16" cy="16" r="16" fill="#FF007A"/>
  <path
    fill="#fff"
    d="M21.8 9.2c-.4-.9-1.1-1.4-2-1.4-.6 0-1.2.3-1.7.8-.2-.9-.8-1.5-1.7-1.5-.7 0-1.3.4-1.7 1.1-.5-.5-1.1-.8-1.8-.8-1.1 0-2 .8-2.3 2-.9.2-1.5.9-1.5 1.8 0 .4.1.8.4 1.1-.5.5-.8 1.2-.8 1.9 0 1.3.9 2.4 2.1 2.7.3 1.4 1.5 2.4 2.9 2.4.7 0 1.4-.3 1.9-.7.5 1.2 1.7 2 3 2 1.5 0 2.8-1 3.2-2.4 1.4-.1 2.5-1.3 2.5-2.7 0-.7-.3-1.4-.8-1.9.2-.3.3-.7.3-1.1 0-.9-.6-1.6-1.5-1.9.1-.4.1-.8-.2-1.4zm-7.4 8.4c-.7 0-1.3-.6-1.3-1.3s.6-1.3 1.3-1.3 1.3.6 1.3 1.3-.6 1.3-1.3 1.3zm3.9 1.7c-.7 0-1.3-.6-1.3-1.3s.6-1.3 1.3-1.3 1.3.6 1.3 1.3-.6 1.3-1.3 1.3zm2.8-3.5c-.7 0-1.3-.6-1.3-1.3s.6-1.3 1.3-1.3 1.3.6 1.3 1.3-.6 1.3-1.3 1.3z"
  />
</svg>
